<?xml version="1.0" encoding="utf-8"?>
<!-- Generator: Circuit Diagram, cdlibrary.dll 4.0.0.0 -->
<!DOCTYPE svg PUBLIC "-//W3C//DTD SVG 1.1//EN" "http://www.w3.org/Graphics/SVG/1.1/DTD/svg11.dtd">
<svg version="1.1" width="520" height="240" xmlns="http://www.w3.org/2000/svg">
	<text x="408" y="40" style="font-family:Arial;font-size:12px;text-anchor:start" dominant-baseline="middle" transform="rotate(0, 408, 40)">26</text>
	<line x1="380" y1="40" x2="397" y2="40" style="stroke:rgb(0, 0, 0);stroke-linecap:square;stroke-width:2" />
	<ellipse cx="400" cy="40" rx="3" ry="3" style="fill-opacity:0;fill:rgb(0, 0, 0);stroke:rgb(0, 0, 0);stroke-width:2" />
	<text x="408" y="70" style="font-family:Arial;font-size:12px;text-anchor:start" dominant-baseline="middle" transform="rotate(0, 408, 70)">25</text>
	<line x1="380" y1="70" x2="397" y2="70" style="stroke:rgb(0, 0, 0);stroke-linecap:square;stroke-width:2" />
	<ellipse cx="400" cy="70" rx="3" ry="3" style="fill-opacity:0;fill:rgb(0, 0, 0);stroke:rgb(0, 0, 0);stroke-width:2" />
	<text x="408" y="180" style="font-family:Arial;font-size:12px;text-anchor:start" dominant-baseline="middle" transform="rotate(0, 408, 180)">18, 20, 22, 24</text>
	<line x1="380" y1="180" x2="397" y2="180" style="stroke:rgb(0, 0, 0);stroke-linecap:square;stroke-width:2" />
	<ellipse cx="400" cy="180" rx="3" ry="3" style="fill-opacity:0;fill:rgb(0, 0, 0);stroke:rgb(0, 0, 0);stroke-width:2" />
	<text x="352" y="180" style="font-family:Arial;font-size:12px;text-anchor:end" dominant-baseline="middle" transform="rotate(0, 352, 180)">+9v</text>
	<line x1="363" y1="180" x2="380" y2="180" style="stroke:rgb(0, 0, 0);stroke-linecap:square;stroke-width:2" />
	<ellipse cx="360" cy="180" rx="3" ry="3" style="fill-opacity:0;fill:rgb(0, 0, 0);stroke:rgb(0, 0, 0);stroke-width:2" />
	<text x="408" y="140" style="font-family:Arial;font-size:12px;text-anchor:start" dominant-baseline="middle" transform="rotate(0, 408, 140)">10, 12, 14, 16</text>
	<line x1="380" y1="140" x2="397" y2="140" style="stroke:rgb(0, 0, 0);stroke-linecap:square;stroke-width:2" />
	<ellipse cx="400" cy="140" rx="3" ry="3" style="fill-opacity:0;fill:rgb(0, 0, 0);stroke:rgb(0, 0, 0);stroke-width:2" />
	<text x="352" y="140" style="font-family:Arial;font-size:12px;text-anchor:end" dominant-baseline="middle" transform="rotate(0, 352, 140)">+Vcc</text>
	<line x1="363" y1="140" x2="380" y2="140" style="stroke:rgb(0, 0, 0);stroke-linecap:square;stroke-width:2" />
	<ellipse cx="360" cy="140" rx="3" ry="3" style="fill-opacity:0;fill:rgb(0, 0, 0);stroke:rgb(0, 0, 0);stroke-width:2" />
	<line x1="380" y1="100" x2="380" y2="112" style="stroke:rgb(0, 0, 0);stroke-linecap:square;stroke-width:2" />
	<path d="M 372,112 L 388,112 L 380,120 L 372,112" style="fill-opacity:0;fill:rgb(0, 0, 0);stroke:rgb(0, 0, 0);stroke-linecap:square;stroke-width:2" />
	<line x1="250" y1="180" x2="260" y2="180" style="stroke:rgb(0, 0, 0);stroke-linecap:square;stroke-width:2" />
	<line x1="250" y1="160" x2="260" y2="160" style="stroke:rgb(0, 0, 0);stroke-linecap:square;stroke-width:2" />
	<line x1="250" y1="140" x2="260" y2="140" style="stroke:rgb(0, 0, 0);stroke-linecap:square;stroke-width:2" />
	<line x1="250" y1="120" x2="260" y2="120" style="stroke:rgb(0, 0, 0);stroke-linecap:square;stroke-width:2" />
	<line x1="250" y1="100" x2="260" y2="100" style="stroke:rgb(0, 0, 0);stroke-linecap:square;stroke-width:2" />
	<line x1="250" y1="80" x2="260" y2="80" style="stroke:rgb(0, 0, 0);stroke-linecap:square;stroke-width:2" />
	<text x="268" y="70" style="font-family:Arial;font-size:12px;text-anchor:start" dominant-baseline="middle" transform="rotate(0, 268, 70)">23</text>
	<line x1="250" y1="70" x2="257" y2="70" style="stroke:rgb(0, 0, 0);stroke-linecap:square;stroke-width:2" />
	<ellipse cx="260" cy="70" rx="3" ry="3" style="fill-opacity:0;fill:rgb(0, 0, 0);stroke:rgb(0, 0, 0);stroke-width:2" />
	<text x="278" y="80" style="font-family:Arial;font-size:12px;text-anchor:start" dominant-baseline="middle" transform="rotate(0, 278, 80)">21</text>
	<line x1="260" y1="80" x2="267" y2="80" style="stroke:rgb(0, 0, 0);stroke-linecap:square;stroke-width:2" />
	<ellipse cx="270" cy="80" rx="3" ry="3" style="fill-opacity:0;fill:rgb(0, 0, 0);stroke:rgb(0, 0, 0);stroke-width:2" />
	<text x="268" y="90" style="font-family:Arial;font-size:12px;text-anchor:start" dominant-baseline="middle" transform="rotate(0, 268, 90)">19</text>
	<line x1="250" y1="90" x2="257" y2="90" style="stroke:rgb(0, 0, 0);stroke-linecap:square;stroke-width:2" />
	<ellipse cx="260" cy="90" rx="3" ry="3" style="fill-opacity:0;fill:rgb(0, 0, 0);stroke:rgb(0, 0, 0);stroke-width:2" />
	<text x="278" y="100" style="font-family:Arial;font-size:12px;text-anchor:start" dominant-baseline="middle" transform="rotate(0, 278, 100)">17</text>
	<line x1="260" y1="100" x2="267" y2="100" style="stroke:rgb(0, 0, 0);stroke-linecap:square;stroke-width:2" />
	<ellipse cx="270" cy="100" rx="3" ry="3" style="fill-opacity:0;fill:rgb(0, 0, 0);stroke:rgb(0, 0, 0);stroke-width:2" />
	<text x="268" y="110" style="font-family:Arial;font-size:12px;text-anchor:start" dominant-baseline="middle" transform="rotate(0, 268, 110)">15</text>
	<line x1="250" y1="110" x2="257" y2="110" style="stroke:rgb(0, 0, 0);stroke-linecap:square;stroke-width:2" />
	<ellipse cx="260" cy="110" rx="3" ry="3" style="fill-opacity:0;fill:rgb(0, 0, 0);stroke:rgb(0, 0, 0);stroke-width:2" />
	<text x="278" y="120" style="font-family:Arial;font-size:12px;text-anchor:start" dominant-baseline="middle" transform="rotate(0, 278, 120)">13</text>
	<line x1="260" y1="120" x2="267" y2="120" style="stroke:rgb(0, 0, 0);stroke-linecap:square;stroke-width:2" />
	<ellipse cx="270" cy="120" rx="3" ry="3" style="fill-opacity:0;fill:rgb(0, 0, 0);stroke:rgb(0, 0, 0);stroke-width:2" />
	<text x="278" y="140" style="font-family:Arial;font-size:12px;text-anchor:start" dominant-baseline="middle" transform="rotate(0, 278, 140)">11</text>
	<line x1="260" y1="140" x2="267" y2="140" style="stroke:rgb(0, 0, 0);stroke-linecap:square;stroke-width:2" />
	<ellipse cx="270" cy="140" rx="3" ry="3" style="fill-opacity:0;fill:rgb(0, 0, 0);stroke:rgb(0, 0, 0);stroke-width:2" />
	<text x="268" y="150" style="font-family:Arial;font-size:12px;text-anchor:start" dominant-baseline="middle" transform="rotate(0, 268, 150)">9</text>
	<line x1="250" y1="150" x2="257" y2="150" style="stroke:rgb(0, 0, 0);stroke-linecap:square;stroke-width:2" />
	<ellipse cx="260" cy="150" rx="3" ry="3" style="fill-opacity:0;fill:rgb(0, 0, 0);stroke:rgb(0, 0, 0);stroke-width:2" />
	<text x="278" y="160" style="font-family:Arial;font-size:12px;text-anchor:start" dominant-baseline="middle" transform="rotate(0, 278, 160)">7</text>
	<line x1="260" y1="160" x2="267" y2="160" style="stroke:rgb(0, 0, 0);stroke-linecap:square;stroke-width:2" />
	<ellipse cx="270" cy="160" rx="3" ry="3" style="fill-opacity:0;fill:rgb(0, 0, 0);stroke:rgb(0, 0, 0);stroke-width:2" />
	<text x="268" y="170" style="font-family:Arial;font-size:12px;text-anchor:start" dominant-baseline="middle" transform="rotate(0, 268, 170)">5</text>
	<line x1="250" y1="170" x2="257" y2="170" style="stroke:rgb(0, 0, 0);stroke-linecap:square;stroke-width:2" />
	<ellipse cx="260" cy="170" rx="3" ry="3" style="fill-opacity:0;fill:rgb(0, 0, 0);stroke:rgb(0, 0, 0);stroke-width:2" />
	<text x="278" y="180" style="font-family:Arial;font-size:12px;text-anchor:start" dominant-baseline="middle" transform="rotate(0, 278, 180)">3</text>
	<line x1="260" y1="180" x2="267" y2="180" style="stroke:rgb(0, 0, 0);stroke-linecap:square;stroke-width:2" />
	<ellipse cx="270" cy="180" rx="3" ry="3" style="fill-opacity:0;fill:rgb(0, 0, 0);stroke:rgb(0, 0, 0);stroke-width:2" />
	<text x="268" y="190" style="font-family:Arial;font-size:12px;text-anchor:start" dominant-baseline="middle" transform="rotate(0, 268, 190)">1</text>
	<line x1="250" y1="190" x2="257" y2="190" style="stroke:rgb(0, 0, 0);stroke-linecap:square;stroke-width:2" />
	<ellipse cx="260" cy="190" rx="3" ry="3" style="fill-opacity:0;fill:rgb(0, 0, 0);stroke:rgb(0, 0, 0);stroke-width:2" />
	<text x="408" y="100" style="font-family:Arial;font-size:12px;text-anchor:start" dominant-baseline="middle" transform="rotate(0, 408, 100)">2, 4, 6, 8</text>
	<line x1="380" y1="100" x2="397" y2="100" style="stroke:rgb(0, 0, 0);stroke-linecap:square;stroke-width:2" />
	<ellipse cx="400" cy="100" rx="3" ry="3" style="fill-opacity:0;fill:rgb(0, 0, 0);stroke:rgb(0, 0, 0);stroke-width:2" />
	<line x1="60" y1="140" x2="120" y2="140" style="stroke:rgb(0, 0, 0);stroke-linecap:square;stroke-width:2" />
	<text x="60" y="175" style="font-family:Arial;font-size:12px;text-anchor:middle" dominant-baseline="hanging" transform="rotate(0, 60, 175)">+Vcc</text>
	<line x1="60" y1="140" x2="60" y2="167" style="stroke:rgb(0, 0, 0);stroke-linecap:square;stroke-width:2" />
	<ellipse cx="60" cy="170" rx="3" ry="3" style="fill-opacity:0;fill:rgb(0, 0, 0);stroke:rgb(0, 0, 0);stroke-width:2" />
	<line x1="30" y1="130" x2="120" y2="130" style="stroke:rgb(0, 0, 0);stroke-linecap:square;stroke-width:2" />
	<line x1="30" y1="130" x2="30" y2="138" style="stroke:rgb(0, 0, 0);stroke-linecap:square;stroke-width:2" />
	<path d="M 22,138 L 38,138 L 30,146 L 22,138" style="fill-opacity:0;fill:rgb(0, 0, 0);stroke:rgb(0, 0, 0);stroke-linecap:square;stroke-width:2" />
	<rect x="125" y="25" width="120" height="195" style="fill-opacity:0;fill:rgb(0, 0, 0);stroke:rgb(0, 0, 0);stroke-width:2" />
	<text x="161" y="55" style="font-family:Arial;font-size:11px;text-anchor:start" dominant-baseline="middle" transform="rotate(0, 161, 55)">ARDUINO</text>
	<text x="168" y="65" style="font-family:Arial;font-size:11px;text-anchor:start" dominant-baseline="middle" transform="rotate(0, 168, 65)">UNO r3</text>
	<line x1="120" y1="80" x2="125" y2="80" style="stroke:rgb(0, 0, 0);stroke-linecap:square;stroke-width:2" />
	<line x1="120" y1="90" x2="125" y2="90" style="stroke:rgb(0, 0, 0);stroke-linecap:square;stroke-width:2" />
	<line x1="120" y1="100" x2="125" y2="100" style="stroke:rgb(0, 0, 0);stroke-linecap:square;stroke-width:2" />
	<line x1="120" y1="110" x2="125" y2="110" style="stroke:rgb(0, 0, 0);stroke-linecap:square;stroke-width:2" />
	<line x1="120" y1="120" x2="125" y2="120" style="stroke:rgb(0, 0, 0);stroke-linecap:square;stroke-width:2" />
	<line x1="120" y1="130" x2="125" y2="130" style="stroke:rgb(0, 0, 0);stroke-linecap:square;stroke-width:2" />
	<line x1="120" y1="140" x2="125" y2="140" style="stroke:rgb(0, 0, 0);stroke-linecap:square;stroke-width:2" />
	<line x1="120" y1="160" x2="125" y2="160" style="stroke:rgb(0, 0, 0);stroke-linecap:square;stroke-width:2" />
	<line x1="120" y1="170" x2="125" y2="170" style="stroke:rgb(0, 0, 0);stroke-linecap:square;stroke-width:2" />
	<line x1="120" y1="180" x2="125" y2="180" style="stroke:rgb(0, 0, 0);stroke-linecap:square;stroke-width:2" />
	<line x1="120" y1="190" x2="125" y2="190" style="stroke:rgb(0, 0, 0);stroke-linecap:square;stroke-width:2" />
	<line x1="120" y1="200" x2="125" y2="200" style="stroke:rgb(0, 0, 0);stroke-linecap:square;stroke-width:2" />
	<line x1="120" y1="210" x2="125" y2="210" style="stroke:rgb(0, 0, 0);stroke-linecap:square;stroke-width:2" />
	<line x1="245" y1="50" x2="250" y2="50" style="stroke:rgb(0, 0, 0);stroke-linecap:square;stroke-width:2" />
	<line x1="245" y1="60" x2="250" y2="60" style="stroke:rgb(0, 0, 0);stroke-linecap:square;stroke-width:2" />
	<line x1="245" y1="70" x2="250" y2="70" style="stroke:rgb(0, 0, 0);stroke-linecap:square;stroke-width:2" />
	<line x1="245" y1="80" x2="250" y2="80" style="stroke:rgb(0, 0, 0);stroke-linecap:square;stroke-width:2" />
	<line x1="245" y1="90" x2="250" y2="90" style="stroke:rgb(0, 0, 0);stroke-linecap:square;stroke-width:2" />
	<line x1="245" y1="100" x2="250" y2="100" style="stroke:rgb(0, 0, 0);stroke-linecap:square;stroke-width:2" />
	<line x1="245" y1="110" x2="250" y2="110" style="stroke:rgb(0, 0, 0);stroke-linecap:square;stroke-width:2" />
	<line x1="245" y1="120" x2="250" y2="120" style="stroke:rgb(0, 0, 0);stroke-linecap:square;stroke-width:2" />
	<line x1="245" y1="140" x2="250" y2="140" style="stroke:rgb(0, 0, 0);stroke-linecap:square;stroke-width:2" />
	<line x1="245" y1="150" x2="250" y2="150" style="stroke:rgb(0, 0, 0);stroke-linecap:square;stroke-width:2" />
	<line x1="245" y1="160" x2="250" y2="160" style="stroke:rgb(0, 0, 0);stroke-linecap:square;stroke-width:2" />
	<line x1="245" y1="170" x2="250" y2="170" style="stroke:rgb(0, 0, 0);stroke-linecap:square;stroke-width:2" />
	<line x1="245" y1="180" x2="250" y2="180" style="stroke:rgb(0, 0, 0);stroke-linecap:square;stroke-width:2" />
	<line x1="245" y1="190" x2="250" y2="190" style="stroke:rgb(0, 0, 0);stroke-linecap:square;stroke-width:2" />
	<line x1="245" y1="200" x2="250" y2="200" style="stroke:rgb(0, 0, 0);stroke-linecap:square;stroke-width:2" />
	<line x1="245" y1="210" x2="250" y2="210" style="stroke:rgb(0, 0, 0);stroke-linecap:square;stroke-width:2" />
	<text x="129" y="80" style="font-family:Arial;font-size:11px;text-anchor:start" dominant-baseline="middle" transform="rotate(0, 129, 80)">IOREF</text>
	<text x="129" y="90" style="font-family:Arial;font-size:11px;text-anchor:start" dominant-baseline="middle" transform="rotate(0, 129, 90)">RESET</text>
	<text x="129" y="100" style="font-family:Arial;font-size:11px;text-anchor:start" dominant-baseline="middle" transform="rotate(0, 129, 100)">3.3V</text>
	<text x="129" y="110" style="font-family:Arial;font-size:11px;text-anchor:start" dominant-baseline="middle" transform="rotate(0, 129, 110)">5V</text>
	<text x="129" y="120" style="font-family:Arial;font-size:11px;text-anchor:start" dominant-baseline="middle" transform="rotate(0, 129, 120)">GND</text>
	<text x="129" y="130" style="font-family:Arial;font-size:11px;text-anchor:start" dominant-baseline="middle" transform="rotate(0, 129, 130)">GND</text>
	<text x="129" y="140" style="font-family:Arial;font-size:11px;text-anchor:start" dominant-baseline="middle" transform="rotate(0, 129, 140)">Vin</text>
	<text x="129" y="160" style="font-family:Arial;font-size:11px;text-anchor:start" dominant-baseline="middle" transform="rotate(0, 129, 160)">A0</text>
	<text x="129" y="170" style="font-family:Arial;font-size:11px;text-anchor:start" dominant-baseline="middle" transform="rotate(0, 129, 170)">A1</text>
	<text x="129" y="180" style="font-family:Arial;font-size:11px;text-anchor:start" dominant-baseline="middle" transform="rotate(0, 129, 180)">A2</text>
	<text x="129" y="190" style="font-family:Arial;font-size:11px;text-anchor:start" dominant-baseline="middle" transform="rotate(0, 129, 190)">A3</text>
	<text x="129" y="200" style="font-family:Arial;font-size:11px;text-anchor:start" dominant-baseline="middle" transform="rotate(0, 129, 200)">A4</text>
	<text x="129" y="210" style="font-family:Arial;font-size:11px;text-anchor:start" dominant-baseline="middle" transform="rotate(0, 129, 210)">A5</text>
	<text x="241" y="50" style="font-family:Arial;font-size:11px;text-anchor:end" dominant-baseline="middle" transform="rotate(0, 241, 50)">AREF</text>
	<text x="241" y="60" style="font-family:Arial;font-size:11px;text-anchor:end" dominant-baseline="middle" transform="rotate(0, 241, 60)">GND</text>
	<text x="241" y="70" style="font-family:Arial;font-size:11px;text-anchor:end" dominant-baseline="middle" transform="rotate(0, 241, 70)">D13</text>
	<text x="241" y="80" style="font-family:Arial;font-size:11px;text-anchor:end" dominant-baseline="middle" transform="rotate(0, 241, 80)">D12</text>
	<text x="241" y="90" style="font-family:Arial;font-size:11px;text-anchor:end" dominant-baseline="middle" transform="rotate(0, 241, 90)">PWM D11</text>
	<text x="241" y="100" style="font-family:Arial;font-size:11px;text-anchor:end" dominant-baseline="middle" transform="rotate(0, 241, 100)">PWM D10</text>
	<text x="241" y="110" style="font-family:Arial;font-size:11px;text-anchor:end" dominant-baseline="middle" transform="rotate(0, 241, 110)">PWM   D9</text>
	<text x="241" y="120" style="font-family:Arial;font-size:11px;text-anchor:end" dominant-baseline="middle" transform="rotate(0, 241, 120)">D8</text>
	<text x="241" y="140" style="font-family:Arial;font-size:11px;text-anchor:end" dominant-baseline="middle" transform="rotate(0, 241, 140)">D7</text>
	<text x="241" y="150" style="font-family:Arial;font-size:11px;text-anchor:end" dominant-baseline="middle" transform="rotate(0, 241, 150)">PWM   D6</text>
	<text x="241" y="160" style="font-family:Arial;font-size:11px;text-anchor:end" dominant-baseline="middle" transform="rotate(0, 241, 160)">PWM   D5</text>
	<text x="241" y="170" style="font-family:Arial;font-size:11px;text-anchor:end" dominant-baseline="middle" transform="rotate(0, 241, 170)">D4</text>
	<text x="241" y="180" style="font-family:Arial;font-size:11px;text-anchor:end" dominant-baseline="middle" transform="rotate(0, 241, 180)">PWM   D3</text>
	<text x="241" y="190" style="font-family:Arial;font-size:11px;text-anchor:end" dominant-baseline="middle" transform="rotate(0, 241, 190)">D2</text>
	<text x="241" y="200" style="font-family:Arial;font-size:11px;text-anchor:end" dominant-baseline="middle" transform="rotate(0, 241, 200)">TX   D1</text>
	<text x="241" y="210" style="font-family:Arial;font-size:11px;text-anchor:end" dominant-baseline="middle" transform="rotate(0, 241, 210)">RX   D0</text>
	<path d="M 185,40 M 185,40 c 2,9 15,9 15,0 c 0,-9 -13,-9 -15,0" style="fill-opacity:0;fill:rgb(0, 0, 0);stroke:rgb(0, 0, 0);stroke-linecap:square;stroke-width:2" />
	<path d="M 185,40 M 185,40 c -2,-9 -15,-9 -15,0 c 0,9 13,9 15,0" style="fill-opacity:0;fill:rgb(0, 0, 0);stroke:rgb(0, 0, 0);stroke-linecap:square;stroke-width:2" />
	<line x1="191" y1="40" x2="195" y2="40" style="stroke:rgb(0, 0, 0);stroke-linecap:square;stroke-width:2" />
	<line x1="193" y1="42" x2="193" y2="38" style="stroke:rgb(0, 0, 0);stroke-linecap:square;stroke-width:2" />
	<line x1="179" y1="40" x2="175" y2="40" style="stroke:rgb(0, 0, 0);stroke-linecap:square;stroke-width:2" />
</svg>